<svg width="377" height="277" viewBox="0 0 377 277" fill="none" xmlns="http://www.w3.org/2000/svg">
<g filter="url(#filter0_d)">
<g filter="url(#filter1_d)">
<path d="M322.669 9.5H52.8377C45.4715 9.5 39.5 15.4715 39.5 22.8377V193.662C39.5 201.029 45.4715 207 52.8377 207H322.669C330.035 207 336.007 201.029 336.007 193.662V22.8377C336.007 15.4715 330.035 9.5 322.669 9.5Z" fill="black"/>
</g>
<path d="M322.669 9.5H52.8377C45.4715 9.5 39.5 15.4715 39.5 22.8377V193.662C39.5 201.029 45.4715 207 52.8377 207H322.669C330.035 207 336.007 201.029 336.007 193.662V22.8377C336.007 15.4715 330.035 9.5 322.669 9.5Z" fill="#777777"/>
<path d="M322.274 10.526H53.3507C46.2678 10.526 40.526 16.2678 40.526 23.3507V193.593C40.526 200.676 46.2678 206.418 53.3507 206.418H322.274C329.357 206.418 335.099 200.676 335.099 193.593V23.3507C335.099 16.2678 329.357 10.526 322.274 10.526Z" fill="url(#paint0_linear)"/>
<path opacity="0.1" d="M306.506 17.8633H69.7816C68.3651 17.8633 67.2167 19.0116 67.2167 20.4282V196.771C67.2167 198.187 68.3651 199.336 69.7816 199.336H306.506C307.923 199.336 309.071 198.187 309.071 196.771V20.4282C309.071 19.0116 307.923 17.8633 306.506 17.8633Z" fill="#2A2A2A"/>
<mask id="mask0" mask-type="alpha" maskUnits="userSpaceOnUse" x="50" y="19" width="276" height="178">
<path d="M321.145 19.4022H54.392C52.1255 19.4022 50.2881 21.2396 50.2881 23.5061V192.792C50.2881 195.058 52.1255 196.896 54.392 196.896H321.145C323.412 196.896 325.249 195.058 325.249 192.792V23.5061C325.249 21.2396 323.412 19.4022 321.145 19.4022Z" fill="white"/>
</mask>
<g mask="url(#mask0)">
<path d="M321.145 19.4022H54.392C52.1255 19.4022 50.2881 21.2396 50.2881 23.5061V192.792C50.2881 195.058 52.1255 196.896 54.392 196.896H321.145C323.412 196.896 325.249 195.058 325.249 192.792V23.5061C325.249 21.2396 323.412 19.4022 321.145 19.4022Z" fill="#E8EAF6"/>
<path fill-rule="evenodd" clip-rule="evenodd" d="M48.4773 19.5032H329.081V49.7694H48.4773V19.5032Z" fill="#5267DF"/>
<path opacity="0.245" d="M70.0227 43.1006C74.5558 43.1006 78.2305 39.4259 78.2305 34.8929C78.2305 30.3598 74.5558 26.6851 70.0227 26.6851C65.4897 26.6851 61.8149 30.3598 61.8149 34.8929C61.8149 39.4259 65.4897 43.1006 70.0227 43.1006Z" fill="white"/>
<path opacity="0.104" d="M306.51 43.1006C311.043 43.1006 314.718 39.4259 314.718 34.8929C314.718 30.3598 311.043 26.6851 306.51 26.6851C301.977 26.6851 298.302 30.3598 298.302 34.8929C298.302 39.4259 301.977 43.1006 306.51 43.1006Z" fill="white"/>
<path opacity="0.75" d="M145.945 29.7629H87.4643C86.6143 29.7629 85.9253 30.452 85.9253 31.3019C85.9253 32.1518 86.6143 32.8409 87.4643 32.8409H145.945C146.795 32.8409 147.484 32.1518 147.484 31.3019C147.484 30.452 146.795 29.7629 145.945 29.7629Z" fill="white"/>
<path opacity="0.25" d="M117.218 36.9448H87.4643C86.6143 36.9448 85.9253 37.6338 85.9253 38.4838C85.9253 39.3337 86.6143 40.0227 87.4643 40.0227H117.218C118.067 40.0227 118.756 39.3337 118.756 38.4838C118.756 37.6338 118.067 36.9448 117.218 36.9448Z" fill="white"/>
<path d="M209.314 67.1101H83.6323C81.3657 67.1101 79.5284 68.9475 79.5284 71.214V225.11C79.5284 227.377 81.3657 229.214 83.6323 229.214H209.314C211.581 229.214 213.418 227.377 213.418 225.11V71.214C213.418 68.9475 211.581 67.1101 209.314 67.1101Z" fill="white"/>
<path d="M292.418 67.11H234.963C232.697 67.11 230.86 68.9474 230.86 71.2139V225.11C230.86 227.377 232.697 229.214 234.963 229.214H292.418C294.685 229.214 296.522 227.377 296.522 225.11V71.2139C296.522 68.9474 294.685 67.11 292.418 67.11Z" fill="white"/>
<path opacity="0.5" d="M179.802 86.7046H121.321C120.471 86.7046 119.782 87.3936 119.782 88.2436C119.782 89.0935 120.471 89.7825 121.321 89.7825H179.802C180.652 89.7825 181.341 89.0935 181.341 88.2436C181.341 87.3936 180.652 86.7046 179.802 86.7046Z" fill="#242A45"/>
</g>
<path d="M103.88 100.042C108.413 100.042 112.088 96.3675 112.088 91.8345C112.088 87.3015 108.413 83.6267 103.88 83.6267C99.3468 83.6267 95.6721 87.3015 95.6721 91.8345C95.6721 96.3675 99.3468 100.042 103.88 100.042Z" fill="#F98E5D"/>
<path opacity="0.25" d="M284.964 78.4968H242.899C242.049 78.4968 241.36 79.1858 241.36 80.0358C241.36 80.8857 242.049 81.5747 242.899 81.5747H284.964C285.814 81.5747 286.503 80.8857 286.503 80.0358C286.503 79.1858 285.814 78.4968 284.964 78.4968Z" fill="#242A45"/>
<path opacity="0.25" d="M284.964 88.7563H242.899C242.049 88.7563 241.36 89.4454 241.36 90.2953C241.36 91.1453 242.049 91.8343 242.899 91.8343H284.964C285.814 91.8343 286.503 91.1453 286.503 90.2953C286.503 89.4454 285.814 88.7563 284.964 88.7563Z" fill="#242A45"/>
<path opacity="0.25" d="M284.964 99.0164H242.899C242.049 99.0164 241.36 99.7054 241.36 100.555C241.36 101.405 242.049 102.094 242.899 102.094H284.964C285.814 102.094 286.503 101.405 286.503 100.555C286.503 99.7054 285.814 99.0164 284.964 99.0164Z" fill="#242A45"/>
<path opacity="0.25" d="M284.964 109.276H242.899C242.049 109.276 241.36 109.965 241.36 110.815C241.36 111.665 242.049 112.354 242.899 112.354H284.964C285.814 112.354 286.503 111.665 286.503 110.815C286.503 109.965 285.814 109.276 284.964 109.276Z" fill="#242A45"/>
<path opacity="0.25" d="M284.964 126.718H242.899C242.049 126.718 241.36 127.407 241.36 128.256C241.36 129.106 242.049 129.795 242.899 129.795H284.964C285.814 129.795 286.503 129.106 286.503 128.256C286.503 127.407 285.814 126.718 284.964 126.718Z" fill="#242A45"/>
<path opacity="0.25" d="M284.964 136.977H242.899C242.049 136.977 241.36 137.666 241.36 138.516C241.36 139.366 242.049 140.055 242.899 140.055H284.964C285.814 140.055 286.503 139.366 286.503 138.516C286.503 137.666 285.814 136.977 284.964 136.977Z" fill="#242A45"/>
<path opacity="0.25" d="M284.964 147.237H242.899C242.049 147.237 241.36 147.926 241.36 148.776C241.36 149.626 242.049 150.315 242.899 150.315H284.964C285.814 150.315 286.503 149.626 286.503 148.776C286.503 147.926 285.814 147.237 284.964 147.237Z" fill="#242A45"/>
<path opacity="0.25" d="M151.075 93.8865H121.321C120.471 93.8865 119.782 94.5755 119.782 95.4254C119.782 96.2754 120.471 96.9644 121.321 96.9644H151.075C151.925 96.9644 152.614 96.2754 152.614 95.4254C152.614 94.5755 151.925 93.8865 151.075 93.8865Z" fill="#242A45"/>
<path d="M103.88 128.77C108.413 128.77 112.088 125.095 112.088 120.562C112.088 116.029 108.413 112.354 103.88 112.354C99.3468 112.354 95.6721 116.029 95.6721 120.562C95.6721 125.095 99.3468 128.77 103.88 128.77Z" fill="#6AC6D6"/>
<path opacity="0.5" d="M179.802 115.432H121.321C120.471 115.432 119.782 116.121 119.782 116.971C119.782 117.821 120.471 118.51 121.321 118.51H179.802C180.652 118.51 181.341 117.821 181.341 116.971C181.341 116.121 180.652 115.432 179.802 115.432Z" fill="#242A45"/>
<path opacity="0.25" d="M151.075 122.614H121.321C120.471 122.614 119.782 123.303 119.782 124.152C119.782 125.002 120.471 125.691 121.321 125.691H151.075C151.925 125.691 152.614 125.002 152.614 124.152C152.614 123.303 151.925 122.614 151.075 122.614Z" fill="#242A45"/>
<path d="M103.88 157.497C108.413 157.497 112.088 153.822 112.088 149.289C112.088 144.756 108.413 141.081 103.88 141.081C99.3468 141.081 95.6721 144.756 95.6721 149.289C95.6721 153.822 99.3468 157.497 103.88 157.497Z" fill="#A47ED4"/>
<path opacity="0.5" d="M179.802 144.159H121.321C120.471 144.159 119.782 144.848 119.782 145.698C119.782 146.548 120.471 147.237 121.321 147.237H179.802C180.652 147.237 181.341 146.548 181.341 145.698C181.341 144.848 180.652 144.159 179.802 144.159Z" fill="#242A45"/>
<path opacity="0.25" d="M151.075 151.341H121.321C120.471 151.341 119.782 152.03 119.782 152.88C119.782 153.73 120.471 154.419 121.321 154.419H151.075C151.925 154.419 152.614 153.73 152.614 152.88C152.614 152.03 151.925 151.341 151.075 151.341Z" fill="#242A45"/>
<path d="M103.88 186.224C108.413 186.224 112.088 182.549 112.088 178.016C112.088 173.483 108.413 169.809 103.88 169.809C99.3468 169.809 95.6721 173.483 95.6721 178.016C95.6721 182.549 99.3468 186.224 103.88 186.224Z" fill="#EC7878"/>
<path opacity="0.5" d="M179.802 172.886H121.321C120.471 172.886 119.782 173.575 119.782 174.425C119.782 175.275 120.471 175.964 121.321 175.964H179.802C180.652 175.964 181.341 175.275 181.341 174.425C181.341 173.575 180.652 172.886 179.802 172.886Z" fill="#242A45"/>
<path opacity="0.25" d="M151.075 180.068H121.321C120.471 180.068 119.782 180.757 119.782 181.607C119.782 182.457 120.471 183.146 121.321 183.146H151.075C151.925 183.146 152.614 182.457 152.614 181.607C152.614 180.757 151.925 180.068 151.075 180.068Z" fill="#242A45"/>
</g>
<defs>
<filter id="filter0_d" x="35.5" y="7.5" width="304.507" height="205.5" filterUnits="userSpaceOnUse" color-interpolation-filters="sRGB">
<feFlood flood-opacity="0" result="BackgroundImageFix"/>
<feColorMatrix in="SourceAlpha" type="matrix" values="0 0 0 0 0 0 0 0 0 0 0 0 0 0 0 0 0 0 127 0" result="hardAlpha"/>
<feOffset dy="2"/>
<feGaussianBlur stdDeviation="2"/>
<feColorMatrix type="matrix" values="0 0 0 0 0 0 0 0 0 0 0 0 0 0 0 0 0 0 0.5 0"/>
<feBlend mode="normal" in2="BackgroundImageFix" result="effect1_dropShadow"/>
<feBlend mode="normal" in="SourceGraphic" in2="effect1_dropShadow" result="shape"/>
</filter>
<filter id="filter1_d" x="-0.5" y="-0.5" width="376.507" height="277.5" filterUnits="userSpaceOnUse" color-interpolation-filters="sRGB">
<feFlood flood-opacity="0" result="BackgroundImageFix"/>
<feColorMatrix in="SourceAlpha" type="matrix" values="0 0 0 0 0 0 0 0 0 0 0 0 0 0 0 0 0 0 127 0" result="hardAlpha"/>
<feOffset dy="30"/>
<feGaussianBlur stdDeviation="20"/>
<feColorMatrix type="matrix" values="0 0 0 0 0.182433 0 0 0 0 0.230633 0 0 0 0 0.506058 0 0 0 0.20012 0"/>
<feBlend mode="normal" in2="BackgroundImageFix" result="effect1_dropShadow"/>
<feBlend mode="normal" in="SourceGraphic" in2="effect1_dropShadow" result="shape"/>
</filter>
<linearGradient id="paint0_linear" x1="332.191" y1="150.931" x2="96.6206" y2="-5.72208" gradientUnits="userSpaceOnUse">
<stop stop-color="#151515"/>
<stop offset="1" stop-color="#3D3D3D"/>
</linearGradient>
</defs>
</svg>
