<svg width="290" height="187" viewBox="0 0 290 187" fill="none" xmlns="http://www.w3.org/2000/svg">
<mask id="mask0" mask-type="alpha" maskUnits="userSpaceOnUse" x="0" y="0" width="290" height="187">
<path d="M285.672 0H4.32836C1.93787 0 0 1.93579 0 4.3237V182.676C0 185.064 1.93787 187 4.32836 187H285.672C288.062 187 290 185.064 290 182.676V4.3237C290 1.93579 288.062 0 285.672 0Z" fill="white"/>
</mask>
<g mask="url(#mask0)">
<path d="M285.672 0H4.32836C1.93787 0 0 1.93579 0 4.3237V182.676C0 185.064 1.93787 187 4.32836 187H285.672C288.062 187 290 185.064 290 182.676V4.3237C290 1.93579 288.062 0 285.672 0Z" fill="#E8EAF6"/>
<path fill-rule="evenodd" clip-rule="evenodd" d="M-1.90988 0.106445H294.042V31.9937H-1.90988V0.106445Z" fill="#242A45"/>
<path opacity="0.245" d="M20.814 24.9678C25.595 24.9678 29.4707 21.0962 29.4707 16.3204C29.4707 11.5445 25.595 7.67297 20.814 7.67297C16.033 7.67297 12.1573 11.5445 12.1573 16.3204C12.1573 21.0962 16.033 24.9678 20.814 24.9678Z" fill="white"/>
<path opacity="0.104" d="M270.236 24.9678C275.017 24.9678 278.892 21.0962 278.892 16.3204C278.892 11.5445 275.017 7.67297 270.236 7.67297C265.455 7.67297 261.579 11.5445 261.579 16.3204C261.579 21.0962 265.455 24.9678 270.236 24.9678Z" fill="white"/>
<path opacity="0.75" d="M100.889 10.9158H39.2095C38.3131 10.9158 37.5864 11.6417 37.5864 12.5372C37.5864 13.4326 38.3131 14.1585 39.2095 14.1585H100.889C101.785 14.1585 102.512 13.4326 102.512 12.5372C102.512 11.6417 101.785 10.9158 100.889 10.9158Z" fill="white"/>
<path opacity="0.25" d="M70.5901 18.4823H39.2095C38.3131 18.4823 37.5864 19.2082 37.5864 20.1037C37.5864 20.9992 38.3131 21.7251 39.2095 21.7251H70.5901C71.4866 21.7251 72.2133 20.9992 72.2133 20.1037C72.2133 19.2082 71.4866 18.4823 70.5901 18.4823Z" fill="white"/>
<path d="M167.724 50.2631H35.1679C32.7774 50.2631 30.8395 52.1988 30.8395 54.5868V216.725C30.8395 219.113 32.7774 221.049 35.1679 221.049H167.724C170.114 221.049 172.052 219.113 172.052 216.725V54.5868C172.052 52.1988 170.114 50.2631 167.724 50.2631Z" fill="white"/>
<path d="M255.373 50.2631H194.776C192.386 50.2631 190.448 52.1988 190.448 54.5868V216.725C190.448 219.113 192.386 221.049 194.776 221.049H255.373C257.764 221.049 259.702 219.113 259.702 216.725V54.5868C259.702 52.1988 257.764 50.2631 255.373 50.2631Z" fill="white"/>
<path opacity="0.5" d="M136.598 70.9071H74.9185C74.022 70.9071 73.2953 71.633 73.2953 72.5285C73.2953 73.424 74.022 74.1499 74.9185 74.1499H136.598C137.494 74.1499 138.221 73.424 138.221 72.5285C138.221 71.633 137.494 70.9071 136.598 70.9071Z" fill="#242A45"/>
<path d="M56.523 84.9591C61.3039 84.9591 65.1797 81.0875 65.1797 76.3117C65.1797 71.5359 61.3039 67.6643 56.523 67.6643C51.742 67.6643 47.8662 71.5359 47.8662 76.3117C47.8662 81.0875 51.742 84.9591 56.523 84.9591Z" fill="#F98E5D"/>
<path opacity="0.25" d="M247.512 62.2596H203.146C202.25 62.2596 201.523 62.9856 201.523 63.881C201.523 64.7765 202.25 65.5024 203.146 65.5024H247.512C248.408 65.5024 249.135 64.7765 249.135 63.881C249.135 62.9856 248.408 62.2596 247.512 62.2596Z" fill="#242A45"/>
<path opacity="0.25" d="M247.512 73.0688H203.146C202.25 73.0688 201.523 73.7948 201.523 74.6902C201.523 75.5857 202.25 76.3116 203.146 76.3116H247.512C248.408 76.3116 249.135 75.5857 249.135 74.6902C249.135 73.7948 248.408 73.0688 247.512 73.0688Z" fill="#242A45"/>
<path opacity="0.25" d="M247.512 83.8782H203.146C202.25 83.8782 201.523 84.6041 201.523 85.4996C201.523 86.395 202.25 87.1209 203.146 87.1209H247.512C248.408 87.1209 249.135 86.395 249.135 85.4996C249.135 84.6041 248.408 83.8782 247.512 83.8782Z" fill="#242A45"/>
<path opacity="0.25" d="M247.512 94.6874H203.146C202.25 94.6874 201.523 95.4133 201.523 96.3088C201.523 97.2042 202.25 97.9302 203.146 97.9302H247.512C248.408 97.9302 249.135 97.2042 249.135 96.3088C249.135 95.4133 248.408 94.6874 247.512 94.6874Z" fill="#242A45"/>
<path opacity="0.25" d="M247.512 113.063H203.146C202.25 113.063 201.523 113.789 201.523 114.684C201.523 115.58 202.25 116.306 203.146 116.306H247.512C248.408 116.306 249.135 115.58 249.135 114.684C249.135 113.789 248.408 113.063 247.512 113.063Z" fill="#242A45"/>
<path opacity="0.25" d="M247.512 123.872H203.146C202.25 123.872 201.523 124.598 201.523 125.494C201.523 126.389 202.25 127.115 203.146 127.115H247.512C248.408 127.115 249.135 126.389 249.135 125.494C249.135 124.598 248.408 123.872 247.512 123.872Z" fill="#242A45"/>
<path opacity="0.25" d="M247.512 134.682H203.146C202.25 134.682 201.523 135.408 201.523 136.303C201.523 137.198 202.25 137.924 203.146 137.924H247.512C248.408 137.924 249.135 137.198 249.135 136.303C249.135 135.408 248.408 134.682 247.512 134.682Z" fill="#242A45"/>
<path opacity="0.25" d="M106.299 78.4735H74.9185C74.0221 78.4735 73.2953 79.1994 73.2953 80.0949C73.2953 80.9904 74.0221 81.7163 74.9185 81.7163H106.299C107.196 81.7163 107.922 80.9904 107.922 80.0949C107.922 79.1994 107.196 78.4735 106.299 78.4735Z" fill="#242A45"/>
<path d="M56.523 115.225C61.3039 115.225 65.1797 111.353 65.1797 106.578C65.1797 101.802 61.3039 97.9302 56.523 97.9302C51.742 97.9302 47.8662 101.802 47.8662 106.578C47.8662 111.353 51.742 115.225 56.523 115.225Z" fill="#6AC6D6"/>
<path opacity="0.5" d="M136.598 101.173H74.9185C74.0221 101.173 73.2953 101.899 73.2953 102.794C73.2953 103.69 74.0221 104.416 74.9185 104.416H136.598C137.494 104.416 138.221 103.69 138.221 102.794C138.221 101.899 137.494 101.173 136.598 101.173Z" fill="#242A45"/>
<path opacity="0.25" d="M106.299 108.739H74.9185C74.0221 108.739 73.2953 109.465 73.2953 110.361C73.2953 111.256 74.0221 111.982 74.9185 111.982H106.299C107.196 111.982 107.922 111.256 107.922 110.361C107.922 109.465 107.196 108.739 106.299 108.739Z" fill="#242A45"/>
<path d="M56.523 145.491C61.3039 145.491 65.1797 141.619 65.1797 136.843C65.1797 132.068 61.3039 128.196 56.523 128.196C51.742 128.196 47.8662 132.068 47.8662 136.843C47.8662 141.619 51.742 145.491 56.523 145.491Z" fill="#A47ED4"/>
<path opacity="0.5" d="M136.598 131.439H74.9185C74.0221 131.439 73.2953 132.165 73.2953 133.06C73.2953 133.956 74.0221 134.682 74.9185 134.682H136.598C137.494 134.682 138.221 133.956 138.221 133.06C138.221 132.165 137.494 131.439 136.598 131.439Z" fill="#242A45"/>
<path opacity="0.25" d="M106.299 139.005H74.9185C74.0221 139.005 73.2953 139.731 73.2953 140.627C73.2953 141.522 74.0221 142.248 74.9185 142.248H106.299C107.196 142.248 107.922 141.522 107.922 140.627C107.922 139.731 107.196 139.005 106.299 139.005Z" fill="#242A45"/>
<path d="M56.523 175.757C61.3039 175.757 65.1797 171.885 65.1797 167.109C65.1797 162.333 61.3039 158.462 56.523 158.462C51.742 158.462 47.8662 162.333 47.8662 167.109C47.8662 171.885 51.742 175.757 56.523 175.757Z" fill="#EC7878"/>
<path opacity="0.5" d="M136.598 161.705H74.9185C74.0221 161.705 73.2953 162.431 73.2953 163.326C73.2953 164.222 74.0221 164.947 74.9185 164.947H136.598C137.494 164.947 138.221 164.222 138.221 163.326C138.221 162.431 137.494 161.705 136.598 161.705Z" fill="#242A45"/>
<path opacity="0.25" d="M106.299 169.271H74.9185C74.0221 169.271 73.2953 169.997 73.2953 170.893C73.2953 171.788 74.0221 172.514 74.9185 172.514H106.299C107.196 172.514 107.922 171.788 107.922 170.893C107.922 169.997 107.196 169.271 106.299 169.271Z" fill="#242A45"/>
</g>
</svg>
