<svg width="290" height="295" viewBox="0 0 290 295" fill="none" xmlns="http://www.w3.org/2000/svg">
<mask id="mask0" mask-type="alpha" maskUnits="userSpaceOnUse" x="0" y="0" width="290" height="295">
<path d="M283.371 0H6.62857C2.96771 0 0 3.04958 0 6.81143V287.783C0 291.545 2.96771 294.594 6.62857 294.594H283.371C287.032 294.594 290 291.545 290 287.783V6.81143C290 3.04958 287.032 0 283.371 0Z" fill="white"/>
</mask>
<g mask="url(#mask0)">
<path d="M283.371 0H6.62857C2.96771 0 0 3.04958 0 6.81143V287.783C0 291.545 2.96771 294.594 6.62857 294.594H283.371C287.032 294.594 290 291.545 290 287.783V6.81143C290 3.04958 287.032 0 283.371 0Z" fill="#E8EAF6"/>
<path fill-rule="evenodd" clip-rule="evenodd" d="M-2.92487 0.167725H450.304V50.402H-2.92487V0.167725Z" fill="#242A45"/>
<path opacity="0.245" d="M31.8751 39.3335C39.1968 39.3335 45.1323 33.2343 45.1323 25.7106C45.1323 18.1869 39.1968 12.0878 31.8751 12.0878C24.5534 12.0878 18.618 18.1869 18.618 25.7106C18.618 33.2343 24.5534 39.3335 31.8751 39.3335Z" fill="white"/>
<path opacity="0.75" d="M154.504 17.1963H60.0466C58.6737 17.1963 57.5609 18.3399 57.5609 19.7506C57.5609 21.1613 58.6737 22.3049 60.0466 22.3049H154.504C155.877 22.3049 156.989 21.1613 156.989 19.7506C156.989 18.3399 155.877 17.1963 154.504 17.1963Z" fill="white"/>
<path opacity="0.25" d="M108.104 29.1163H60.0466C58.6737 29.1163 57.5609 30.2599 57.5609 31.6706C57.5609 33.0813 58.6737 34.2249 60.0466 34.2249H108.104C109.477 34.2249 110.589 33.0813 110.589 31.6706C110.589 30.2599 109.477 29.1163 108.104 29.1163Z" fill="white"/>
<path d="M212.114 72.3715H29C25.3392 72.3715 22.3715 75.421 22.3715 79.1829V94.5086C22.3715 98.2705 25.3392 101.32 29 101.32H212.114C215.775 101.32 218.743 98.2705 218.743 94.5086V79.1829C218.743 75.421 215.775 72.3715 212.114 72.3715Z" fill="white"/>
<path d="M212.114 113.24H29C25.3392 113.24 22.3715 116.29 22.3715 120.051V135.377C22.3715 139.139 25.3392 142.189 29 142.189H212.114C215.775 142.189 218.743 139.139 218.743 135.377V120.051C218.743 116.29 215.775 113.24 212.114 113.24Z" fill="white"/>
<path d="M212.114 154.109H29C25.3392 154.109 22.3715 157.158 22.3715 160.92V176.246C22.3715 180.008 25.3392 183.057 29 183.057H212.114C215.775 183.057 218.743 180.008 218.743 176.246V160.92C218.743 157.158 215.775 154.109 212.114 154.109Z" fill="white"/>
<path d="M212.114 194.977H29C25.3392 194.977 22.3715 198.027 22.3715 201.789V217.114C22.3715 220.876 25.3392 223.926 29 223.926H212.114C215.775 223.926 218.743 220.876 218.743 217.114V201.789C218.743 198.027 215.775 194.977 212.114 194.977Z" fill="white"/>
<path d="M212.114 235.846H29C25.3392 235.846 22.3715 238.895 22.3715 242.657V257.983C22.3715 261.745 25.3392 264.794 29 264.794H212.114C215.775 264.794 218.743 261.745 218.743 257.983V242.657C218.743 238.895 215.775 235.846 212.114 235.846Z" fill="white"/>
<mask id="mask1" mask-type="alpha" maskUnits="userSpaceOnUse" x="74" y="70" width="291" height="253">
<path d="M364.571 70.7095H74.7529V322.691H364.571V70.7095Z" fill="white"/>
</mask>
<g mask="url(#mask1)">
<path fill-rule="evenodd" clip-rule="evenodd" d="M75.6428 283.815C76.198 285.533 77.0638 287.219 78.2727 288.868C99.1544 317.369 177.184 326.869 254.115 321.064C294.281 318.032 322.613 300.182 340.52 283.814C344.402 280.267 348.097 276.509 351.589 272.557C355.458 268.176 358.477 263.31 360.629 258.172C366.965 243.035 365.745 225.549 356.384 211.206C348.449 199.051 337.558 190.07 331.931 180.092C321.216 161.09 377.864 113.054 341 82.7061C327.988 71.9917 300.268 69.5191 270.023 71.1811C233.211 73.2058 192.664 81.36 170.359 88.248C124.198 102.498 95.3073 123.14 88.7127 146.363C82.1189 169.587 99.7418 180.095 115.128 202.263C129.623 223.145 66.6122 255.9 75.6428 283.815" fill="#3A499E"/>
<path fill-rule="evenodd" clip-rule="evenodd" d="M153.659 148.04L167.733 145.594L169.857 159.046L152.457 164.326L153.659 148.04Z" fill="#306299"/>
<path fill-rule="evenodd" clip-rule="evenodd" d="M168.2 146.546C168.2 146.546 179.117 146.25 190.571 141.337L185.189 151.771L169.651 156.663L168.2 146.546Z" fill="#FA9E89"/>
<mask id="mask2" mask-type="alpha" maskUnits="userSpaceOnUse" x="232" y="72" width="131" height="188">
<path d="M362.914 72.4122H232.145V259.594H362.914V72.4122Z" fill="white"/>
</mask>
<g mask="url(#mask2)">
<path opacity="0.152" fill-rule="evenodd" clip-rule="evenodd" d="M232.774 116.804C239.495 150.997 353.75 203.386 359.244 259.594C365.141 244.479 364.005 227.02 355.291 212.699C347.905 200.562 337.767 191.594 332.53 181.631C322.554 162.659 375.288 114.693 340.973 84.3911C328.86 73.6929 303.056 71.2237 274.902 72.884C266.332 74.8968 226.709 85.9373 232.774 116.804Z" fill="white"/>
</g>
<path opacity="0.149" fill-rule="evenodd" clip-rule="evenodd" d="M73.0634 277.566C72.2473 284.263 75.0023 288.92 76.0795 290.53C94.6635 318.348 195.803 327.621 264.273 321.955C300.022 318.995 329.32 300.06 347.171 279.196L73.0634 277.566Z" fill="black"/>
<path opacity="0.128" fill-rule="evenodd" clip-rule="evenodd" d="M303.566 280.811C303.566 280.811 311.916 281.331 311.787 283.928C311.659 286.524 306.392 292.236 306.392 292.236L314.271 289.337L338.057 288.406L335.489 290.679C335.489 290.679 316.326 291.587 315.47 292.279C314.614 292.971 303.652 301.454 301.768 301.8C299.884 302.146 180.227 301.991 180.227 301.991C180.227 301.991 167.916 302.493 165.86 298.598C163.805 294.703 156.355 294.962 154.299 298.338C152.244 301.714 152.529 314.177 152.529 314.177C152.529 314.177 146.901 312.668 146.592 312.533C127.066 304.05 105.229 277.566 105.229 277.566L303.566 280.811V280.811Z" fill="black"/>
<path fill-rule="evenodd" clip-rule="evenodd" d="M169.449 255.498L164.456 284.617L163.629 289.444L165.445 289.718L165.574 289.739L169.541 290.337C169.541 290.337 182.775 256.839 183.901 248.798C185.028 240.758 163.066 208.6 163.066 208.6L139.23 210.684C138.599 217.682 148.132 230.872 156.652 241.14C163.364 249.228 169.449 255.498 169.449 255.498" fill="#F4F2F9"/>
<path fill-rule="evenodd" clip-rule="evenodd" d="M169.128 254.181L163.43 288.04L165.208 288.313L165.269 288.634L165.335 288.335C166.06 285.074 174.565 256.204 174.824 250.32C175.1 244.082 163.201 224.777 163.201 224.777L156.6 239.859C163.171 247.926 169.128 254.18 169.128 254.18" fill="#E0DFEA"/>
<path fill-rule="evenodd" clip-rule="evenodd" d="M137.543 212.006L161.296 209.973L162.4 169.337C162.4 169.337 156.6 148.149 150.247 148.149C146.475 148.149 142.802 149.685 140.553 153.423C139.018 155.98 138.148 159.57 138.371 164.403C138.877 175.282 137.767 206.044 137.57 211.25C137.554 211.742 137.543 212.006 137.543 212.006" fill="#6397D9"/>
<path fill-rule="evenodd" clip-rule="evenodd" d="M144.076 208.835L143.63 160.459L149.143 148.947L142.711 148.149L140.449 150.882C138.966 153.438 138.127 157.029 138.343 161.86C138.831 172.736 137.733 204.246 137.543 209.451L144.076 208.835V208.835Z" fill="#8BBFF7"/>
<path fill-rule="evenodd" clip-rule="evenodd" d="M144.171 161.771L161.586 195.829L162.038 180.511L162.4 168.081L147.88 161.771H144.171Z" fill="#306299"/>
<path fill-rule="evenodd" clip-rule="evenodd" d="M188.642 300.554H295.245C299.213 300.554 302.429 297.227 302.429 293.121V105.347C302.429 101.242 299.213 97.9143 295.245 97.9143H188.641C184.673 97.9143 181.456 101.242 181.456 105.347V293.121C181.456 297.227 184.673 300.554 188.641 300.554" fill="white"/>
<path fill-rule="evenodd" clip-rule="evenodd" d="M188.086 124.555V199.839C188.086 201.387 189.292 202.64 190.781 202.64H293.105C294.594 202.64 295.8 201.387 295.8 199.839V124.555C295.8 123.008 294.594 121.754 293.105 121.754H190.781C189.292 121.754 188.086 123.008 188.086 124.555Z" fill="#E4DCF1"/>
<path fill-rule="evenodd" clip-rule="evenodd" d="M241.236 142.189L242.522 143.196L245.257 155.432L245.198 157.447L240.867 157.514C240.573 157.519 240.277 157.459 240.014 157.301C238.775 156.554 238.247 154.47 238.93 152.625C239.298 151.632 240.24 149.874 240.349 149.098C240.61 147.238 241.236 142.189 241.236 142.189" fill="#8E2B43"/>
<path fill-rule="evenodd" clip-rule="evenodd" d="M218.743 205.194L263.671 205.017L265.159 205.012C265.159 205.012 270.534 178.917 261.831 168.86C259.712 166.413 256.957 164.608 253.955 163.436C244.614 159.777 232.865 162.197 230.346 170.218C227.019 180.82 218.743 205.194 218.743 205.194Z" fill="#4EC9B4"/>
<path fill-rule="evenodd" clip-rule="evenodd" d="M253.675 163.891C253.675 163.891 251.84 169.021 247.79 170.101C243.74 171.181 239.099 167.356 239.479 162.9C239.479 162.9 243.361 162.315 243.993 160.38C244.762 158.03 244.246 157.95 244.246 157.95C244.246 157.95 242.727 154.979 242.221 152.819C241.715 150.659 242.474 142.287 246.018 141.478C248.259 140.966 251.84 141.748 254.371 145.529C254.371 145.529 253.105 152.819 251.334 156.33C249.562 159.84 248.676 161.461 253.675 163.891Z" fill="#FA9E89"/>
<path opacity="0.184" fill-rule="evenodd" clip-rule="evenodd" d="M190.71 98.7767L300.771 257.335V293.303C300.771 297.308 297.706 300.554 293.925 300.554H194.361C189.98 300.554 186.429 296.793 186.429 292.152V102.024C186.429 99.5303 188.359 98.6558 190.71 98.7767" fill="#F4F2F9"/>
<path fill-rule="evenodd" clip-rule="evenodd" d="M223.714 189.393L217.929 163.474L208.8 165.02L217.652 202.64L223.714 189.393Z" fill="#4EC9B4"/>
<path fill-rule="evenodd" clip-rule="evenodd" d="M216.091 162.74L215.594 160.095C215.594 160.095 217.086 159.087 216.837 157.576C216.589 156.064 217.086 152.538 217.086 152.538C217.086 152.538 216.293 151.987 215.781 152.979C215.416 153.685 214.849 155.309 214.849 155.309C214.849 155.309 212.946 150.059 212.507 148.676C212.321 148.088 212.132 147.172 211.699 147.312C211.471 147.385 211.554 147.92 211.593 148.444C211.709 150.014 212.362 152.517 212.362 152.517L212.031 152.717L210.653 148.224C210.592 148.006 210.493 147.676 210.27 147.658C210.073 147.641 209.876 147.752 209.876 148.256C209.876 149.264 210.933 153.43 210.933 153.43L210.668 153.616L209.065 149.974C208.955 149.699 208.557 149.723 208.489 150.012C208.435 150.24 208.451 150.565 208.633 151.026C209.13 152.287 209.627 154.301 209.627 154.301L209.503 154.448L208.633 152.601C208.477 152.305 208.095 152.115 207.984 152.43C207.828 152.871 209.192 156.662 209.192 156.915C209.192 157.167 210.125 160.598 211.119 160.85C212.113 161.102 212.176 163.474 212.176 163.474L216.091 162.74V162.74Z" fill="#FA9E89"/>
<path fill-rule="evenodd" clip-rule="evenodd" d="M273.719 224.777H292.196C293.271 224.777 294.144 223.864 294.144 222.739V220.004C294.144 218.878 293.271 217.966 292.196 217.966H273.72C272.645 217.966 271.772 218.878 271.772 220.004V222.739C271.772 223.864 272.645 224.777 273.72 224.777H273.719ZM247.206 224.777H265.681C266.757 224.777 267.629 223.864 267.629 222.739V220.004C267.629 218.878 266.757 217.966 265.681 217.966H247.206C246.13 217.966 245.258 218.878 245.258 220.004V222.739C245.258 223.864 246.13 224.777 247.206 224.777ZM219.035 224.777H237.51C238.585 224.777 239.458 223.864 239.458 222.739V220.004C239.458 218.878 238.585 217.966 237.51 217.966H219.035C217.959 217.966 217.087 218.878 217.087 220.004V222.739C217.087 223.864 217.959 224.777 219.035 224.777H219.035ZM192.521 224.777H210.996C212.071 224.777 212.944 223.864 212.944 222.739V220.004C212.944 218.878 212.071 217.966 210.996 217.966H192.52C191.445 217.966 190.572 218.878 190.572 220.004V222.739C190.572 223.864 191.445 224.777 192.52 224.777" fill="#FFDEDD"/>
<path fill-rule="evenodd" clip-rule="evenodd" d="M194.339 240.954H292.032C293.198 240.954 294.143 240.035 294.143 238.902V236.195C294.143 235.062 293.198 234.143 292.032 234.143H194.339C193.173 234.143 192.229 235.062 192.229 236.195V238.902C192.229 240.035 193.173 240.954 194.339 240.954ZM292.032 254.577C293.198 254.577 294.143 253.658 294.143 252.525V249.818C294.143 248.685 293.198 247.766 292.032 247.766H194.339C193.173 247.766 192.229 248.685 192.229 249.818V252.525C192.229 253.658 193.173 254.577 194.339 254.577H292.032ZM194.339 268.2H292.032C293.198 268.2 294.143 267.28 294.143 266.148V263.44C294.143 262.308 293.198 261.389 292.032 261.389H194.339C193.173 261.389 192.229 262.308 192.229 263.44V266.148C192.229 267.28 193.173 268.2 194.339 268.2ZM194.339 279.269H292.032C293.198 279.269 294.143 278.349 294.143 277.217V274.509C294.143 273.377 293.198 272.457 292.032 272.457H194.339C193.173 272.457 192.229 273.377 192.229 274.509V277.217C192.229 278.349 193.173 279.269 194.339 279.269Z" fill="#F4F2F9"/>
<path fill-rule="evenodd" clip-rule="evenodd" d="M256.213 139.056C256.213 139.056 250.993 131.523 241.141 135.885C231.291 140.246 241.983 147.382 241.983 147.382C241.983 147.382 242.194 144.607 243.752 143.814L243.625 146.281L249.14 147.272L250.024 144.894L250.592 147.603L253.371 148.659C253.371 148.659 251.098 156.854 249.771 158.043C249.771 158.043 249.203 159.959 249.393 160.356C249.581 160.752 257.98 162.933 259.054 160.951C260.128 158.969 257.917 156.193 257.223 154.343C256.528 152.493 258.485 142.669 256.212 139.056" fill="#FC516B"/>
<path fill-rule="evenodd" clip-rule="evenodd" d="M280.349 118.349H294.68C295.756 118.349 296.629 117.205 296.629 115.794C296.629 114.383 295.756 113.24 294.68 113.24H280.349C279.272 113.24 278.4 114.383 278.4 115.794C278.4 117.205 279.272 118.349 280.349 118.349Z" fill="#E4DCF1"/>
<path fill-rule="evenodd" clip-rule="evenodd" d="M258.514 179.651C258.514 179.651 256.307 196.072 253.783 202.64H240.476C240.476 202.64 238.282 195.711 248.801 193.445C256.117 191.869 258.514 179.651 258.514 179.651ZM232.322 175.394C232.322 175.394 229.621 183.909 230.128 186.463C230.634 189.017 232.829 190.89 232.829 192.593C232.829 194.296 231.478 200.767 231.478 200.767L223.714 200.937C223.714 200.937 225.004 200.711 227.934 198.34C232.407 194.722 228.567 186.74 229.517 182.206C230.014 179.827 232.322 175.394 232.322 175.394V175.394ZM223.714 188.823C223.714 188.823 223.538 195.961 222.128 194.862C220.717 193.764 221.599 183.149 220.365 179.489C219.131 175.828 215.429 164.115 215.429 164.115L218.602 163.474L223.714 188.823Z" fill="#44AD99"/>
<path fill-rule="evenodd" clip-rule="evenodd" d="M202.688 156.216C202.688 156.216 201.382 156.805 199.788 158.809C199.261 159.473 196.448 160.53 195.783 161.353C186.134 173.29 173.249 182.504 164.991 178.836C154.443 174.151 152.457 169.795 152.457 169.795L159.429 160.121C159.429 160.121 167.435 172.688 173.874 169.265C180.314 165.842 193.007 156.871 193.007 156.871L193.344 151.367C193.344 151.367 194.085 151.163 194.441 152.214C194.797 153.267 194.814 154.176 194.814 154.176L199.826 148.195C199.826 148.195 200.789 147.889 200.495 148.85C200.202 149.812 198.431 152.569 198.431 152.569C198.431 152.569 198.249 153.094 198.633 152.854C199.08 152.576 202.582 148.519 202.582 148.519C202.582 148.519 203.388 148.464 203.059 149.256C202.804 149.867 200.685 152.739 199.968 153.815C199.754 154.135 200.202 154.015 200.202 154.015L203.099 151.486C203.49 151.215 203.896 151.305 203.819 151.8C203.757 152.191 202.968 153.093 202.5 153.45C201.328 154.341 200.511 155.964 200.511 155.964L203.033 155.027C203.033 155.027 203.526 155.477 202.688 156.216V156.216ZM143.343 124.726L146.533 148.838L157.011 150.703C157.011 150.703 156.481 150.134 155.874 149.375C155.254 148.602 154.557 147.629 154.248 146.849C153.543 145.058 153.538 143.387 153.538 143.387C153.538 143.387 158.185 143.926 158.905 141.178C159.628 138.426 157.958 125.61 157.958 125.61C157.958 125.61 155.884 117.557 143.343 124.726Z" fill="#FA9E89"/>
<path fill-rule="evenodd" clip-rule="evenodd" d="M152.137 125C152.137 125 157.303 129.01 162.261 125.594C162.261 125.594 159.119 125.296 158.141 123.663C158.141 123.663 160.097 124.183 162.4 120.842C162.4 120.842 158.351 121.436 156.955 120.173C155.558 118.911 148.437 116.905 144.178 119.95C139.918 122.995 139.988 125.223 139.988 125.223C139.988 125.223 137.475 126.188 137.544 127.673C137.614 129.158 143.758 141.337 143.758 141.337L145.085 135.916C145.085 135.916 144.037 136.238 143.409 133.713C142.781 131.188 145.504 132.277 145.783 132.797C146.062 133.317 147.878 129.232 147.878 129.232L147.598 126.857C147.598 126.857 146.69 123.811 152.137 125.001" fill="#261F27"/>
<path fill-rule="evenodd" clip-rule="evenodd" d="M142.337 237.875C145.312 250.21 139.81 299.527 139.81 299.527L145.194 300.554C166.869 249.456 161.911 207.749 161.911 207.749L137.543 209.804C137.543 209.804 137.605 208.762 137.631 209.009C137.911 211.57 139.626 226.624 142.337 237.875" fill="white"/>
<path fill-rule="evenodd" clip-rule="evenodd" d="M169.252 286.996L175.51 291.985C175.51 291.985 177.975 291.679 178.45 292.85C178.924 294.02 178.971 295.344 178.971 295.344L172.429 295.446L161.571 291.017L163.278 286.08L169.252 286.996ZM144.544 301.695C144.544 301.695 146.758 305.375 148.99 308.381C149.739 309.39 151.572 309.829 152.286 312.293C152.899 314.413 151.672 315.88 151.672 315.88C151.672 315.88 147.559 315.119 144.697 312.511C141.836 309.902 137.543 304.902 137.543 304.902L138.718 300.554L144.543 301.695H144.544Z" fill="#6397D9"/>
<path fill-rule="evenodd" clip-rule="evenodd" d="M154.268 150.792C154.268 150.792 145.525 150.939 144.744 149.851L144.171 151.467C144.171 151.467 151.098 155.347 155.771 153.702L154.268 150.792V150.792Z" fill="#306299"/>
<path fill-rule="evenodd" clip-rule="evenodd" d="M166.543 162.551L156.113 174.543C156.113 174.543 142.175 161.702 142.521 157.676C142.866 153.651 147.973 145.318 155.806 152.974C163.427 160.422 166.543 162.551 166.543 162.551Z" fill="#8CC5F2"/>
<path fill-rule="evenodd" clip-rule="evenodd" d="M139.668 300.26L141.794 300.554C141.794 300.554 151.759 264.394 148.481 237.679C147.496 229.646 144.053 209.451 144.053 209.451L137.543 210.079C137.806 212.653 139.496 226.984 142.039 238.293C144.828 250.691 139.669 300.26 139.669 300.26" fill="#F4F2F9"/>
<path fill-rule="evenodd" clip-rule="evenodd" d="M151.01 149.475C152.243 149.751 152.915 149.839 153.286 149.851C152.707 149.029 152.056 147.994 151.768 147.163C151.111 145.255 151.106 143.476 151.106 143.476C151.106 143.476 148.644 142.81 148.391 143.124C148.139 143.438 148.39 148.888 151.01 149.475" fill="#E6846F"/>
<path fill-rule="evenodd" clip-rule="evenodd" d="M271.771 152.406C271.771 161.339 278.44 168.583 286.663 168.583C290.107 168.583 293.276 167.313 295.8 165.18V139.631C293.276 137.497 290.108 136.229 286.663 136.229C278.44 136.229 271.771 143.472 271.771 152.406Z" fill="#CEC3E2"/>
<path fill-rule="evenodd" clip-rule="evenodd" d="M271.771 152.831C271.771 161.53 277.98 168.583 285.637 168.583C288.843 168.583 291.793 167.347 294.143 165.271V140.392C291.794 138.317 288.842 137.08 285.637 137.08C277.98 137.08 271.771 144.133 271.771 152.831Z" fill="#C3B8D8"/>
<path fill-rule="evenodd" clip-rule="evenodd" d="M250.229 166.962C250.229 166.962 251.873 166.022 252.133 165.851C252.393 165.681 255.77 166.619 260.274 171.398C264.776 176.178 260.879 180.189 262.783 182.748C264.69 185.309 262.872 190.686 261.918 194.357C260.965 198.027 261.918 202.635 261.918 202.635L261.968 202.64L263.477 202.635C263.477 202.635 268.932 178.056 260.1 168.582C257.949 166.278 255.154 164.578 252.107 163.474L250.229 166.962Z" fill="#44AD99"/>
</g>
</g>
</svg>
